<mxfile host="app.diagrams.net" modified="2023-01-28T13:02:27.278Z" agent="5.0 (Windows NT 10.0; Win64; x64) AppleWebKit/537.36 (KHTML, like Gecko) Chrome/109.0.0.0 Safari/537.36 Edg/109.0.1518.69" etag="xweamYnI4bqWgcYS8oel" version="20.5.3" type="github">
  <diagram id="m4jh_sS9GPj_F_j-_fYV" name="Page-1">
    <mxGraphModel dx="1199" dy="541" grid="1" gridSize="10" guides="1" tooltips="1" connect="1" arrows="1" fold="1" page="1" pageScale="1" pageWidth="827" pageHeight="1169" math="0" shadow="0">
      <root>
        <mxCell id="0" />
        <mxCell id="1" parent="0" />
        <mxCell id="wYrI9s0NnwjHVDcnDHSh-45" value="" style="edgeStyle=orthogonalEdgeStyle;rounded=0;orthogonalLoop=1;jettySize=auto;html=1;fontSize=20;" parent="1" source="wYrI9s0NnwjHVDcnDHSh-30" target="wYrI9s0NnwjHVDcnDHSh-36" edge="1">
          <mxGeometry relative="1" as="geometry" />
        </mxCell>
        <mxCell id="wYrI9s0NnwjHVDcnDHSh-30" value="" style="rounded=0;whiteSpace=wrap;html=1;" parent="1" vertex="1">
          <mxGeometry x="354" y="110" width="120" height="60" as="geometry" />
        </mxCell>
        <mxCell id="wYrI9s0NnwjHVDcnDHSh-31" value="" style="rounded=0;whiteSpace=wrap;html=1;" parent="1" vertex="1">
          <mxGeometry x="354" y="170" width="120" height="60" as="geometry" />
        </mxCell>
        <mxCell id="wYrI9s0NnwjHVDcnDHSh-51" style="edgeStyle=orthogonalEdgeStyle;rounded=0;orthogonalLoop=1;jettySize=auto;html=1;fontSize=20;entryX=1;entryY=0.5;entryDx=0;entryDy=0;" parent="1" target="wYrI9s0NnwjHVDcnDHSh-32" edge="1">
          <mxGeometry relative="1" as="geometry">
            <mxPoint x="590" y="260" as="sourcePoint" />
            <mxPoint x="480" y="260" as="targetPoint" />
            <Array as="points" />
          </mxGeometry>
        </mxCell>
        <mxCell id="wYrI9s0NnwjHVDcnDHSh-52" style="edgeStyle=orthogonalEdgeStyle;rounded=0;orthogonalLoop=1;jettySize=auto;html=1;exitX=1;exitY=0.75;exitDx=0;exitDy=0;fontSize=20;" parent="1" source="wYrI9s0NnwjHVDcnDHSh-32" edge="1">
          <mxGeometry relative="1" as="geometry">
            <mxPoint x="590" y="350" as="targetPoint" />
          </mxGeometry>
        </mxCell>
        <mxCell id="wYrI9s0NnwjHVDcnDHSh-32" value="" style="rounded=0;whiteSpace=wrap;html=1;" parent="1" vertex="1">
          <mxGeometry x="354" y="230" width="120" height="60" as="geometry" />
        </mxCell>
        <mxCell id="wYrI9s0NnwjHVDcnDHSh-33" value="" style="rounded=0;whiteSpace=wrap;html=1;" parent="1" vertex="1">
          <mxGeometry x="354" y="290" width="120" height="60" as="geometry" />
        </mxCell>
        <mxCell id="wYrI9s0NnwjHVDcnDHSh-34" value="&lt;font style=&quot;font-size: 20px&quot;&gt;L2/3&lt;/font&gt;" style="text;html=1;strokeColor=none;fillColor=none;align=center;verticalAlign=middle;whiteSpace=wrap;rounded=0;" parent="1" vertex="1">
          <mxGeometry x="384" y="125" width="60" height="30" as="geometry" />
        </mxCell>
        <mxCell id="wYrI9s0NnwjHVDcnDHSh-35" value="&lt;span style=&quot;font-size: 20px&quot;&gt;L4&lt;/span&gt;" style="text;html=1;strokeColor=none;fillColor=none;align=center;verticalAlign=middle;whiteSpace=wrap;rounded=0;" parent="1" vertex="1">
          <mxGeometry x="384" y="185" width="60" height="30" as="geometry" />
        </mxCell>
        <mxCell id="wYrI9s0NnwjHVDcnDHSh-36" value="&lt;span style=&quot;font-size: 20px&quot;&gt;L5&lt;/span&gt;" style="text;html=1;strokeColor=none;fillColor=none;align=center;verticalAlign=middle;whiteSpace=wrap;rounded=0;" parent="1" vertex="1">
          <mxGeometry x="384" y="245" width="60" height="30" as="geometry" />
        </mxCell>
        <mxCell id="wYrI9s0NnwjHVDcnDHSh-37" value="&lt;span style=&quot;font-size: 20px&quot;&gt;L6&lt;/span&gt;" style="text;html=1;strokeColor=none;fillColor=none;align=center;verticalAlign=middle;whiteSpace=wrap;rounded=0;" parent="1" vertex="1">
          <mxGeometry x="384" y="305" width="60" height="30" as="geometry" />
        </mxCell>
        <mxCell id="wYrI9s0NnwjHVDcnDHSh-40" style="edgeStyle=orthogonalEdgeStyle;rounded=0;orthogonalLoop=1;jettySize=auto;html=1;exitX=0.5;exitY=0;exitDx=0;exitDy=0;fontSize=20;entryX=0;entryY=0.5;entryDx=0;entryDy=0;" parent="1" source="wYrI9s0NnwjHVDcnDHSh-38" target="wYrI9s0NnwjHVDcnDHSh-31" edge="1">
          <mxGeometry relative="1" as="geometry">
            <mxPoint x="250" y="200" as="targetPoint" />
            <Array as="points">
              <mxPoint x="260" y="200" />
            </Array>
          </mxGeometry>
        </mxCell>
        <mxCell id="wYrI9s0NnwjHVDcnDHSh-38" value="Thalamus" style="rounded=0;whiteSpace=wrap;html=1;fontSize=20;" parent="1" vertex="1">
          <mxGeometry x="210" y="400" width="120" height="70" as="geometry" />
        </mxCell>
        <mxCell id="wYrI9s0NnwjHVDcnDHSh-41" value="" style="endArrow=classic;html=1;rounded=0;fontSize=20;" parent="1" edge="1">
          <mxGeometry width="50" height="50" relative="1" as="geometry">
            <mxPoint x="260" y="320" as="sourcePoint" />
            <mxPoint x="354" y="320" as="targetPoint" />
          </mxGeometry>
        </mxCell>
        <mxCell id="wYrI9s0NnwjHVDcnDHSh-44" value="" style="endArrow=classic;html=1;rounded=0;fontSize=20;entryX=0.5;entryY=1;entryDx=0;entryDy=0;" parent="1" target="wYrI9s0NnwjHVDcnDHSh-34" edge="1">
          <mxGeometry width="50" height="50" relative="1" as="geometry">
            <mxPoint x="414" y="200" as="sourcePoint" />
            <mxPoint x="516" y="199.5" as="targetPoint" />
          </mxGeometry>
        </mxCell>
        <mxCell id="wYrI9s0NnwjHVDcnDHSh-47" value="" style="endArrow=classic;html=1;rounded=0;fontSize=20;exitX=0;exitY=1;exitDx=0;exitDy=0;entryX=0;entryY=0.75;entryDx=0;entryDy=0;" parent="1" source="wYrI9s0NnwjHVDcnDHSh-34" target="wYrI9s0NnwjHVDcnDHSh-36" edge="1">
          <mxGeometry width="50" height="50" relative="1" as="geometry">
            <mxPoint x="390" y="330" as="sourcePoint" />
            <mxPoint x="440" y="280" as="targetPoint" />
          </mxGeometry>
        </mxCell>
        <mxCell id="wYrI9s0NnwjHVDcnDHSh-48" value="" style="endArrow=classic;html=1;rounded=0;fontSize=20;exitX=1;exitY=0.5;exitDx=0;exitDy=0;entryX=1;entryY=0.75;entryDx=0;entryDy=0;" parent="1" source="wYrI9s0NnwjHVDcnDHSh-36" target="wYrI9s0NnwjHVDcnDHSh-37" edge="1">
          <mxGeometry width="50" height="50" relative="1" as="geometry">
            <mxPoint x="390" y="330" as="sourcePoint" />
            <mxPoint x="440" y="280" as="targetPoint" />
          </mxGeometry>
        </mxCell>
        <mxCell id="wYrI9s0NnwjHVDcnDHSh-49" value="" style="endArrow=classic;html=1;rounded=0;fontSize=20;entryX=1.008;entryY=0.607;entryDx=0;entryDy=0;entryPerimeter=0;exitX=0.5;exitY=1;exitDx=0;exitDy=0;" parent="1" source="wYrI9s0NnwjHVDcnDHSh-33" target="wYrI9s0NnwjHVDcnDHSh-38" edge="1">
          <mxGeometry width="50" height="50" relative="1" as="geometry">
            <mxPoint x="390" y="424" as="sourcePoint" />
            <mxPoint x="440" y="374" as="targetPoint" />
            <Array as="points">
              <mxPoint x="414" y="442" />
            </Array>
          </mxGeometry>
        </mxCell>
        <mxCell id="wYrI9s0NnwjHVDcnDHSh-50" value="" style="endArrow=classic;html=1;rounded=0;fontSize=20;exitX=1;exitY=0.5;exitDx=0;exitDy=0;entryX=-0.003;entryY=0.49;entryDx=0;entryDy=0;entryPerimeter=0;" parent="1" source="wYrI9s0NnwjHVDcnDHSh-30" target="JUQ0HPmx8qy_whmIuBLa-1" edge="1">
          <mxGeometry width="50" height="50" relative="1" as="geometry">
            <mxPoint x="487" y="147" as="sourcePoint" />
            <mxPoint x="600" y="140" as="targetPoint" />
            <Array as="points" />
          </mxGeometry>
        </mxCell>
        <mxCell id="wYrI9s0NnwjHVDcnDHSh-53" value="Basal ganglia" style="rounded=0;whiteSpace=wrap;html=1;fontSize=20;" parent="1" vertex="1">
          <mxGeometry x="530" y="350" width="120" height="60" as="geometry" />
        </mxCell>
        <mxCell id="JUQ0HPmx8qy_whmIuBLa-1" value="&lt;font style=&quot;font-size: 18px;&quot;&gt;higher regions&lt;/font&gt;" style="text;html=1;resizable=0;autosize=1;align=center;verticalAlign=middle;points=[];fillColor=none;strokeColor=none;rounded=0;" vertex="1" parent="1">
          <mxGeometry x="590" y="120" width="140" height="40" as="geometry" />
        </mxCell>
        <mxCell id="JUQ0HPmx8qy_whmIuBLa-2" value="&lt;font style=&quot;font-size: 18px;&quot;&gt;lower regions&lt;/font&gt;" style="text;html=1;resizable=0;autosize=1;align=center;verticalAlign=middle;points=[];fillColor=none;strokeColor=none;rounded=0;" vertex="1" parent="1">
          <mxGeometry x="590" y="240" width="130" height="40" as="geometry" />
        </mxCell>
      </root>
    </mxGraphModel>
  </diagram>
</mxfile>
